<?xml version="1.0" encoding="UTF-8"?>
<svg version="1.1" xmlns="http://www.w3.org/2000/svg" width="888" height="192">
<path d="M0 0 C1.56047445 0.00015913 3.12095416 0.00585397 4.68139648 0.01586914 C5.5012352 0.01728409 6.32107391 0.01869904 7.16575623 0.02015686 C9.79470406 0.0257725 12.42356797 0.0383276 15.05249023 0.05102539 C16.8304838 0.05603838 18.60847869 0.06060163 20.38647461 0.06469727 C24.75434569 0.07574701 29.12215371 0.09302208 33.48999023 0.11352539 C33.9013623 0.99161865 34.31273437 1.86971191 34.73657227 2.77441406 C41.9738148 18.2163587 49.23050141 33.6464329 56.67749023 48.98852539 C63.07898731 62.17893268 69.27364225 75.45880215 75.40527344 88.77636719 C76.08055896 90.23135442 76.7726342 91.67881333 77.48999023 93.11352539 C78.65866177 88.93432755 78.62268285 84.89150822 78.60351562 80.58129883 C78.60366165 79.72240051 78.60380768 78.8635022 78.60395813 77.97857666 C78.60326219 75.14332543 78.59548468 72.30814013 78.58764648 69.47290039 C78.58578117 67.50563594 78.5843578 65.53837103 78.58335876 63.57110596 C78.5795425 58.39586095 78.56971979 53.22064406 78.55865479 48.04541016 C78.54842153 42.7634316 78.54385704 37.4814485 78.53881836 32.19946289 C78.52809675 21.83747138 78.51103099 11.47550072 78.48999023 1.11352539 C86.35444235 -2.81870067 100.97527002 -1.2195935 109.48999023 0.11352539 C114.87445183 2.23921539 118.4266934 6.10002693 122.07202148 10.47192383 C123.90470463 12.59364585 125.93728518 14.39243398 128.04541016 16.23413086 C135.20239534 22.48794231 141.82229574 29.34904178 148.48999023 36.11352539 C147.91180607 24.10697762 147.27735835 12.10832472 146.48999023 0.11352539 C150.61497411 0.08367414 154.7399292 0.0664503 158.86499023 0.05102539 C160.57041992 0.03845703 160.57041992 0.03845703 162.31030273 0.02563477 C169.22023637 0.00644051 176.07242639 0.21261498 182.96899414 0.61962891 C184.20490044 0.69051098 184.20490044 0.69051098 185.46577454 0.76282501 C187.4739339 0.87821293 189.48197511 0.99565401 191.48999023 1.11352539 C191.48776962 2.00729385 191.48554901 2.90106232 191.48326111 3.82191467 C191.4630957 12.30845583 191.44793409 20.79498875 191.43817806 29.2815485 C191.43299355 33.64295041 191.425978 38.00433228 191.41455078 42.36572266 C191.40356239 46.58678314 191.39768017 50.80782453 191.39511299 55.02889824 C191.39328712 56.62696063 191.3897229 58.22502215 191.38426018 59.82307625 C191.35472509 68.83425485 191.55364465 77.73872889 192.26856995 86.72654724 C192.62558877 92.18772237 192.57300651 97.64367538 192.48999023 103.11352539 C166.61508496 106.73186243 166.61508496 106.73186243 157.9753418 101.08325195 C150.7194986 95.55856649 145.08274564 88.2368891 139.48999023 81.11352539 C138.21155102 79.6046419 136.92237147 78.10474101 135.61889648 76.61743164 C135.09626221 76.02003174 134.57362793 75.42263184 134.03515625 74.80712891 C131.89668921 72.46322847 129.64927326 70.2440091 127.36108398 68.04711914 C125.62017915 66.248063 123.99746598 64.39661217 122.37304688 62.49267578 C121.83305557 61.86043594 121.29306427 61.22819611 120.73670959 60.57679749 C120.32529221 60.09391769 119.91387482 59.6110379 119.48999023 59.11352539 C119.43464111 60.37535645 119.37929199 61.6371875 119.32226562 62.93725586 C119.11620853 67.60771429 118.9042264 72.27788803 118.69042969 76.94799805 C118.59863581 78.9713625 118.50846061 80.99480104 118.41992188 83.01831055 C118.29256337 85.92265373 118.15943353 88.82668286 118.02514648 91.73071289 C117.98656021 92.63908905 117.94797394 93.54746521 117.90821838 94.48336792 C117.86825241 95.32408844 117.82828644 96.16480896 117.78710938 97.03100586 C117.7538002 97.77269012 117.72049103 98.51437439 117.68617249 99.27853394 C117.48999023 101.11352539 117.48999023 101.11352539 116.48999023 103.11352539 C90.41999023 103.11352539 64.34999023 103.11352539 37.48999023 103.11352539 C32.48999023 90.11352539 32.48999023 90.11352539 32.48999023 87.11352539 C21.26999023 87.11352539 10.04999023 87.11352539 -1.51000977 87.11352539 C-1.84000977 88.76352539 -2.17000977 90.41352539 -2.51000977 92.11352539 C-3.1648619 94.06230223 -3.85319245 96.0001113 -4.57250977 97.92602539 C-4.93473633 98.9018457 -5.29696289 99.87766602 -5.67016602 100.88305664 C-5.94731445 101.61911133 -6.22446289 102.35516602 -6.51000977 103.11352539 C-34.6615412 103.31991492 -34.6615412 103.31991492 -46.51000977 102.11352539 C-44.02905531 95.6938098 -41.31708252 89.41366682 -38.44995117 83.15771484 C-31.99543116 69.05544452 -25.99474476 54.78490906 -20.13500977 40.42602539 C-19.75705261 39.50098206 -19.37909546 38.57593872 -18.98968506 37.62286377 C-14.77381976 27.29279056 -10.61632927 16.94437893 -6.64761353 6.51643372 C-4.20053322 0.13585922 -4.20053322 0.13585922 0 0 Z M17.48999023 39.11352539 C16.31886077 41.73661638 15.1529306 44.36180681 13.98999023 46.98852539 C13.65612305 47.73489258 13.32225586 48.48125977 12.97827148 49.25024414 C12.66245117 49.96567383 12.34663086 50.68110352 12.02124023 51.41821289 C11.58134766 52.40797119 11.58134766 52.40797119 11.13256836 53.41772461 C10.37187768 55.12298746 10.37187768 55.12298746 10.48999023 57.11352539 C15.5708582 57.96033672 20.33827401 58.20390638 25.48999023 58.11352539 C23.43234103 51.65998924 21.06615541 45.37739909 18.48999023 39.11352539 C18.15999023 39.11352539 17.82999023 39.11352539 17.48999023 39.11352539 Z " fill="#F3673A" transform="translate(151.510009765625,47.886474609375)"/>
<path d="M0 0 C5.3844616 2.12569 8.93670317 5.98650154 12.58203125 10.35839844 C14.4147144 12.48012046 16.44729494 14.27890859 18.55541992 16.12060547 C25.7124051 22.37441692 32.3323055 29.23551639 39 36 C38.42181583 23.99345223 37.78736811 11.99479933 37 0 C41.12498387 -0.02985125 45.24993897 -0.04707509 49.375 -0.0625 C50.51195312 -0.07087891 51.64890625 -0.07925781 52.8203125 -0.08789062 C59.73024613 -0.10708489 66.58243616 0.09908959 73.47900391 0.50610352 C74.7149102 0.57698559 74.7149102 0.57698559 75.9757843 0.64929962 C77.98394366 0.76468754 79.99198488 0.88212862 82 1 C81.99777939 1.89376846 81.99555878 2.78753693 81.99327087 3.70838928 C81.97310546 12.19493044 81.95794386 20.68146336 81.94818783 29.16802311 C81.94300332 33.52942502 81.93598777 37.89080689 81.92456055 42.25219727 C81.91357215 46.47325775 81.90768994 50.69429914 81.90512276 54.91537285 C81.90329689 56.51343524 81.89973267 58.11149676 81.89426994 59.70955086 C81.86473486 68.72072946 82.06365442 77.6252035 82.77857971 86.61302185 C83.13559854 92.07419698 83.08301627 97.53014999 83 103 C57.12509473 106.61833704 57.12509473 106.61833704 48.48535156 100.96972656 C41.22950836 95.4450411 35.59275541 88.12336371 30 81 C28.72156079 79.49111651 27.43238123 77.99121562 26.12890625 76.50390625 C25.60627197 75.90650635 25.0836377 75.30910645 24.54516602 74.69360352 C22.40669898 72.34970308 20.15928303 70.13048371 17.87109375 67.93359375 C16.13018892 66.13453761 14.50747574 64.28308678 12.88305664 62.37915039 C12.34306534 61.74691055 11.80307404 61.11467072 11.24671936 60.46327209 C10.83530197 59.9803923 10.42388458 59.49751251 10 59 C9.94465088 60.26183105 9.88930176 61.52366211 9.83227539 62.82373047 C9.62621829 67.4941889 9.41423616 72.16436264 9.20043945 76.83447266 C9.10864558 78.85783711 9.01847037 80.88127565 8.92993164 82.90478516 C8.80257313 85.80912833 8.66944329 88.71315747 8.53515625 91.6171875 C8.47727684 92.97975174 8.47727684 92.97975174 8.41822815 94.36984253 C8.37826218 95.21056305 8.3382962 96.05128357 8.29711914 96.91748047 C8.26380997 97.65916473 8.23050079 98.400849 8.19618225 99.16500854 C8 101 8 101 7 103 C-5.54 103 -18.08 103 -31 103 C-31 69.34 -31 35.68 -31 1 C-23.13554789 -2.93222606 -8.51472021 -1.33311889 0 0 Z " fill="#F2673A" transform="translate(676,48)"/>
<path d="M0 0 C2.60818752 2.56619027 4.54906747 5.51982163 6.5625 8.5625 C7.11357422 9.36236328 7.66464844 10.16222656 8.23242188 10.98632812 C9.31917781 12.56554048 10.39703588 14.1509178 11.46533203 15.74267578 C12.90013804 17.85311427 14.38904093 19.91035273 15.90234375 21.96484375 C18 25 18 25 18 27 C17.46221924 27.235979 16.92443848 27.47195801 16.37036133 27.71508789 C-8.49349689 37.59035926 -8.49349689 37.59035926 -28 55 C-26.65768192 60.5370621 -22.60136584 63.97527863 -18 67 C-14.7 68.32 -11.4 69.64 -8 71 C-7.67 61.43 -7.34 51.86 -7 42 C7.6267755 43.43655831 19.70989501 46.3549475 33 53 C33 70.49 33 87.98 33 106 C17.3887601 106.16043524 17.3887601 106.16043524 10.68945312 106.1953125 C6.1336788 106.21914347 1.5782287 106.24721094 -2.97729492 106.30175781 C-6.65371801 106.34549865 -10.32979298 106.36919592 -14.00645638 106.37950897 C-15.40299007 106.38685014 -16.79950659 106.40118483 -18.19589043 106.42292023 C-34.22746213 106.66233681 -44.03522033 100.71770328 -55.625 89.875 C-63.53032976 81.68479349 -71.21697117 70.94413307 -71.375 59.25 C-71.02024577 44.08892462 -60.39940032 32.85892591 -50.1550293 22.6628418 C-38.90013435 11.92817888 -16.08060739 -3.44284545 0 0 Z " fill="#F3673A" transform="translate(837,45)"/>
<path d="M0 0 C2.60818752 2.56619027 4.54906747 5.51982163 6.5625 8.5625 C7.11357422 9.36236328 7.66464844 10.16222656 8.23242188 10.98632812 C9.31917781 12.56554048 10.39703588 14.1509178 11.46533203 15.74267578 C12.90013804 17.85311427 14.38904093 19.91035273 15.90234375 21.96484375 C18 25 18 25 18 27 C17.46221924 27.235979 16.92443848 27.47195801 16.37036133 27.71508789 C-8.49349689 37.59035926 -8.49349689 37.59035926 -28 55 C-26.65768192 60.5370621 -22.60136584 63.97527863 -18 67 C-14.7 68.32 -11.4 69.64 -8 71 C-7.67 61.43 -7.34 51.86 -7 42 C7.6267755 43.43655831 19.70989501 46.3549475 33 53 C33 70.49 33 87.98 33 106 C17.3887601 106.16043524 17.3887601 106.16043524 10.68945312 106.1953125 C6.1336788 106.21914347 1.5782287 106.24721094 -2.97729492 106.30175781 C-6.65371801 106.34549865 -10.32979298 106.36919592 -14.00645638 106.37950897 C-15.40299007 106.38685014 -16.79950659 106.40118483 -18.19589043 106.42292023 C-34.22746213 106.66233681 -44.03522033 100.71770328 -55.625 89.875 C-63.53032976 81.68479349 -71.21697117 70.94413307 -71.375 59.25 C-71.02024577 44.08892462 -60.39940032 32.85892591 -50.1550293 22.6628418 C-38.90013435 11.92817888 -16.08060739 -3.44284545 0 0 Z " fill="#F3673A" transform="translate(422,45)"/>
<path d="M0 0 C0.37656738 0.9446814 0.37656738 0.9446814 0.76074219 1.90844727 C2.39264046 5.99626785 4.02779567 10.08210087 5.703125 14.15234375 C5.9609375 14.78333984 6.21875 15.41433594 6.484375 16.06445312 C7.00660779 17.34205834 7.53282241 18.61804142 8.0625 19.89257812 C9.22908611 22.76440362 10 24.86754883 10 28 C10.66 28 11.32 28 12 28 C12.12238037 27.12134277 12.24476074 26.24268555 12.37084961 25.33740234 C12.96764626 22.1716242 13.82863414 19.56524219 15.06640625 16.6015625 C15.42935791 15.72322754 15.79230957 14.84489258 16.16625977 13.93994141 C16.62701904 12.84601074 17.08777832 11.75208008 17.5625 10.625 C19.026875 7.11875 20.49125 3.6125 22 0 C34.21 0 46.42 0 59 0 C58.17323927 4.13380364 57.15337584 7.55572429 55.68359375 11.47265625 C55.43929626 12.1244133 55.19499878 12.77617035 54.94329834 13.44767761 C54.11317486 15.6545979 53.27591813 17.85871835 52.4375 20.0625 C52.14686676 20.8296936 51.85623352 21.59688721 51.55679321 22.3873291 C45.23097494 39.06192981 38.62931323 55.62827277 32.01121902 72.18845749 C31.18554123 74.25490225 30.36065911 76.32166337 29.53585815 78.38845825 C28.22570279 81.67019593 26.91240263 84.95065789 25.59650421 88.23009682 C24.86774656 90.04750603 24.14122091 91.86580974 23.41473389 93.68412781 C22.9790509 94.76708633 22.54336792 95.85004486 22.09448242 96.96582031 C21.52161751 98.39393036 21.52161751 98.39393036 20.93717957 99.85089111 C20 102 20 102 19 103 C17.61839885 103.0927833 16.23211962 103.11747043 14.84741211 103.11352539 C13.96657455 103.11344986 13.085737 103.11337433 12.1782074 103.11329651 C11.22092239 103.10813522 10.26363739 103.10297394 9.27734375 103.09765625 C8.30213272 103.0962413 7.32692169 103.09482635 6.32215881 103.09336853 C3.19390857 103.08775133 0.06572877 103.07519593 -3.0625 103.0625 C-5.17773334 103.05748722 -7.29296781 103.05292393 -9.40820312 103.04882812 C-14.60549296 103.03777631 -19.80274145 103.02102146 -25 103 C-24.36626794 98.7659208 -22.90073587 95.39801956 -21.0234375 91.5625 C-20.4292232 90.32574381 -19.83548751 89.08875756 -19.2421875 87.8515625 C-18.30838446 85.91999731 -17.37045073 83.99074732 -16.42382812 82.06542969 C-15.5072493 80.19511344 -14.60809033 78.31719493 -13.7109375 76.4375 C-13.16743652 75.32246094 -12.62393555 74.20742187 -12.06396484 73.05859375 C-10.1630815 67.59409936 -12.39052231 63.85212987 -14.75457764 58.89707947 C-15.13334045 58.11764481 -15.51210327 57.33821014 -15.90234375 56.53515625 C-16.29617249 55.71281998 -16.69000122 54.8904837 -17.09576416 54.04322815 C-17.93715438 52.28746704 -18.78098715 50.53287472 -19.62704468 48.77935791 C-21.81021666 44.2531692 -23.97424271 39.7178358 -26.140625 35.18359375 C-26.77686043 33.85376465 -26.77686043 33.85376465 -27.4259491 32.49707031 C-30.73902733 25.56632888 -34.00193057 18.61547056 -37.1875 11.625 C-37.59025146 10.74851807 -37.99300293 9.87203613 -38.40795898 8.96899414 C-41 3.24738664 -41 3.24738664 -41 1 C-27.33207359 -0.14069132 -13.70719411 -0.10657507 0 0 Z " fill="#F3673A" transform="translate(52,48)"/>
<path d="M0 0 C1.29550781 0.78213867 1.29550781 0.78213867 2.6171875 1.58007812 C3.50664063 2.12212891 4.39609375 2.66417969 5.3125 3.22265625 C6.20195313 3.76083984 7.09140625 4.29902344 8.0078125 4.85351562 C9.66899458 5.85890269 11.32926158 6.86580453 12.98828125 7.87475586 C15.4247198 9.35325434 17.86762205 10.82066354 20.3125 12.28515625 C19.15812725 15.7482745 18.43985136 16.09343624 15.5 18.03515625 C10.14406277 21.93912486 7.78815639 25.38365229 6.6875 32.09765625 C7.13858979 40.15505316 13.723978 47.09414745 18.69921875 52.984375 C22.50778204 58.415958 23.85029423 63.60233492 23.75 70.16015625 C23.74170166 70.86269531 23.73340332 71.56523438 23.72485352 72.2890625 C23.53573131 78.11483421 22.54869135 82.45516495 19.3125 87.28515625 C18.87292969 87.95675781 18.43335938 88.62835938 17.98046875 89.3203125 C12.91198498 95.97991522 5.64770428 99.59154275 -1.6875 103.28515625 C-2.53054688 103.71054688 -3.37359375 104.1359375 -4.2421875 104.57421875 C-9.62992327 106.14062116 -14.12043992 103.78983435 -18.8203125 101.23046875 C-20.52380859 100.30814453 -20.52380859 100.30814453 -22.26171875 99.3671875 C-22.8448584 99.04572754 -23.42799805 98.72426758 -24.02880859 98.39306641 C-25.8098766 97.41160189 -27.5975043 96.44308191 -29.38671875 95.4765625 C-39.76634939 89.82031327 -39.76634939 89.82031327 -42.6875 87.28515625 C-42.6875 86.62515625 -42.6875 85.96515625 -42.6875 85.28515625 C-42.02363281 85.0428125 -41.35976563 84.80046875 -40.67578125 84.55078125 C-34.44498489 82.18580745 -29.60258995 80.25684754 -25.875 74.47265625 C-24.19294201 69.9576585 -23.83640069 66.649321 -25.49609375 62.0390625 C-27.86312021 56.92006065 -30.88708818 52.56801426 -34.3125 48.09765625 C-41.02248576 39.28870656 -43.04776342 32.4065692 -41.6875 21.28515625 C-40.46404349 17.89152093 -38.82137025 15.17801243 -36.6875 12.28515625 C-36.130625 11.41890625 -35.57375 10.55265625 -35 9.66015625 C-25.13551852 -0.47093283 -12.82332876 -7.78010432 0 0 Z " fill="#F3673A" transform="translate(559.6875,49.71484375)"/>
<path d="M0 0 C14.85 0 29.7 0 45 0 C45 33.99 45 67.98 45 103 C30.81 103 16.62 103 2 103 C2.020625 96.895 2.04125 90.79 2.0625 84.5 C2.09132675 61.94306499 1.8403363 39.36949154 0.18359375 16.86328125 C-0.08325076 11.24819139 0 5.62142688 0 0 Z " fill="#F2673A" transform="translate(590,48)"/>
</svg>
